<?xml version="1.0" encoding="UTF-8" standalone="no"?>
<svg
   xmlns:dc="http://purl.org/dc/elements/1.1/"
   xmlns:cc="http://creativecommons.org/ns#"
   xmlns:rdf="http://www.w3.org/1999/02/22-rdf-syntax-ns#"
   xmlns:svg="http://www.w3.org/2000/svg"
   xmlns="http://www.w3.org/2000/svg"
   xmlns:sodipodi="http://sodipodi.sourceforge.net/DTD/sodipodi-0.dtd"
   xmlns:inkscape="http://www.inkscape.org/namespaces/inkscape"
   version="1.1"
   id="svg2"
   xml:space="preserve"
   width="224.74666"
   height="280.52106"
   viewBox="0 0 224.74666 280.52106"
   sodipodi:docname="logo_cessda.svg"
   inkscape:version="1.0.2 (e86c870879, 2021-01-15, custom)"><metadata
     id="metadata8"><rdf:RDF><cc:Work
         rdf:about=""><dc:format>image/svg+xml</dc:format><dc:type
           rdf:resource="http://purl.org/dc/dcmitype/StillImage" /><dc:title></dc:title></cc:Work></rdf:RDF></metadata><defs
     id="defs6" /><sodipodi:namedview
     pagecolor="#ffffff"
     bordercolor="#666666"
     borderopacity="1"
     objecttolerance="10"
     gridtolerance="10"
     guidetolerance="10"
     inkscape:pageopacity="0"
     inkscape:pageshadow="2"
     inkscape:window-width="1920"
     inkscape:window-height="1056"
     id="namedview4"
     showgrid="false"
     inkscape:zoom="1.6295903"
     inkscape:cx="112.37468"
     inkscape:cy="140.26266"
     inkscape:window-x="1963"
     inkscape:window-y="0"
     inkscape:window-maximized="0"
     inkscape:current-layer="g10" /><g
     id="g10"
     inkscape:groupmode="layer"
     inkscape:label="ink_ext_XXXXXX"
     transform="matrix(1.3333333,0,0,-1.3333333,-145.312,397.68932)"><g
       id="g12"
       transform="scale(0.1)"
       style="fill:#ffffff"><path
         d="m 1289.74,879.09 h -98.63 c -55.84,0 -101.27,45.359 -101.27,101.129 v 164.751 c 0,55.76 45.43,101.13 101.27,101.13 l 98.56,0.4 h 0.07 c 10.37,0 18.8,-8.38 18.84,-18.77 0.05,-10.4 -8.36,-18.87 -18.76,-18.92 l -98.64,-0.39 c -35.13,0 -63.67,-28.47 -63.67,-63.45 V 980.219 c 0,-34.989 28.54,-63.449 63.6,-63.449 h 98.63 c 10.41,0 18.84,-8.43 18.84,-18.84 0,-10.41 -8.43,-18.84 -18.84,-18.84"
         style="fill:#ffffff;fill-opacity:1;fill-rule:nonzero;stroke:none"
         id="path14" /><path
         d="m 1567.81,878.762 h -117.07 c -55.84,0 -101.26,45.418 -101.26,101.238 v 164.95 c 0,55.82 45.42,101.23 101.26,101.23 h 47.14 c 55.85,0 101.28,-45.41 101.28,-101.23 v -91.58 h -176.22 c -10.41,0 -18.85,8.43 -18.85,18.84 0,10.4 8.44,18.84 18.85,18.84 h 138.54 v 53.9 c 0,35.04 -28.53,63.55 -63.6,63.55 h -47.14 c -35.05,0 -63.58,-28.51 -63.58,-63.55 V 980 c 0,-35.039 28.53,-63.551 63.58,-63.551 h 117.07 c 10.41,0 18.84,-8.437 18.84,-18.847 0,-10.403 -8.43,-18.84 -18.84,-18.84"
         style="fill:#ffffff;fill-opacity:1;fill-rule:nonzero;stroke:none"
         id="path16" /><path
         d="m 2674.17,880.648 h -58.33 c -28.02,0 -54.02,13.731 -73.22,38.684 -18.09,23.508 -28.05,54.598 -28.05,87.518 0,66.82 41.65,113.48 101.27,113.48 h 83 c 10.4,0 18.85,-8.44 18.85,-18.84 0,-10.41 -8.45,-18.85 -18.85,-18.85 h -83 c -38.03,0 -63.59,-30.45 -63.59,-75.79 0,-48.811 28.53,-88.51 63.59,-88.51 h 58.33 c 35.07,0 63.6,28.492 63.6,63.519 v 164.991 c 0,35.02 -28.53,63.53 -63.6,63.53 h -108.72 c -10.41,0 -18.84,8.43 -18.84,18.84 0,10.4 8.43,18.85 18.84,18.85 h 108.72 c 55.84,0 101.27,-45.41 101.27,-101.22 V 981.859 c 0,-55.808 -45.43,-101.211 -101.27,-101.211"
         style="fill:#ffffff;fill-opacity:1;fill-rule:nonzero;stroke:none"
         id="path18" /><path
         d="m 2361.43,878.762 h -59.56 c -55.84,0 -101.28,45.418 -101.28,101.238 v 165.02 c 0,55.82 45.44,101.23 101.28,101.23 h 84.55 c 10.41,0 18.85,-8.43 18.85,-18.83 0,-10.41 -8.44,-18.85 -18.85,-18.85 h -84.55 c -35.07,0 -63.6,-28.5 -63.6,-63.55 V 980 c 0,-35.039 28.53,-63.551 63.6,-63.551 h 59.56 c 35.07,0 63.59,28.512 63.59,63.551 v 412.2 c 0,10.41 8.43,18.84 18.85,18.84 10.4,0 18.83,-8.43 18.83,-18.84 V 980 c 0,-55.82 -45.42,-101.238 -101.27,-101.238"
         style="fill:#ffffff;fill-opacity:1;fill-rule:nonzero;stroke:none"
         id="path20" /><path
         d="m 1784.55,878.762 h -108.03 c -10.41,0 -18.84,8.437 -18.84,18.84 0,10.41 8.43,18.847 18.84,18.847 h 108.03 c 33.77,0 61.24,27.442 61.24,61.172 0,28.969 -20.57,54.169 -48.91,59.949 l -52.76,10.95 c -8.44,1.5 -20.35,5.01 -24.09,6.44 -38.04,14.54 -63.59,51.66 -63.59,92.36 0,54.51 44.38,98.86 98.92,98.86 h 81.5 c 10.41,0 18.85,-8.44 18.85,-18.84 0,-10.41 -8.44,-18.84 -18.85,-18.84 h -81.5 c -33.76,0 -61.23,-27.45 -61.23,-61.18 0,-25.19 15.81,-48.16 39.35,-57.17 1.85,-0.68 11.35,-3.5 17.43,-4.57 l 0.59,-0.11 52.97,-10.99 c 45.75,-9.32 79.01,-50.06 79.01,-96.859 0,-54.512 -44.38,-98.859 -98.93,-98.859"
         style="fill:#ffffff;fill-opacity:1;fill-rule:nonzero;stroke:none"
         id="path22" /><path
         d="m 2048.22,878.762 h -108.04 c -10.41,0 -18.84,8.437 -18.84,18.84 0,10.41 8.43,18.847 18.84,18.847 h 108.04 c 33.76,0 61.24,27.442 61.24,61.172 0,28.969 -20.58,54.169 -48.93,59.949 l -52.74,10.95 c -8.45,1.5 -20.35,5.01 -24.1,6.44 -38.03,14.54 -63.59,51.66 -63.59,92.36 0,54.51 44.38,98.86 98.93,98.86 h 81.5 c 10.4,0 18.84,-8.44 18.84,-18.84 0,-10.41 -8.44,-18.84 -18.84,-18.84 h -81.5 c -33.77,0 -61.24,-27.45 -61.24,-61.18 0,-25.19 15.82,-48.16 39.35,-57.17 1.86,-0.68 11.35,-3.5 17.43,-4.57 l 0.6,-0.11 52.96,-10.99 c 45.75,-9.32 79.01,-50.06 79.01,-96.859 0,-54.512 -44.37,-98.859 -98.92,-98.859"
         style="fill:#ffffff;fill-opacity:1;fill-rule:nonzero;stroke:none"
         id="path24" /><path
         d="m 2042.16,2329.59 c 0,-60.54 -49.07,-109.62 -109.62,-109.62 -60.55,0 -109.63,49.08 -109.63,109.62 0,60.55 49.08,109.63 109.63,109.63 60.55,0 109.62,-49.08 109.62,-109.63"
         style="fill:#ffffff;fill-opacity:1;fill-rule:nonzero;stroke:none"
         id="path26" /><path
         d="m 2128.77,2761.54 c 24.08,23.93 56.14,37.11 90.27,37.11 16.1,0 31.67,-3.15 46.27,-8.77 l -93.2,93.12 c -53.34,53.31 -120.78,86.75 -195.07,96.65 -15.26,1.99 -30.65,3.02 -45.85,3.02 -91.02,0 -176.49,-35.36 -240.65,-99.56 l -315.7,-315.92 c -8.05,-8.05 -15.64,-16.45 -22.77,-25.14 -49.9,-60.71 -77.01,-136.23 -76.93,-216.01 0.11,-91.05 35.58,-176.56 99.84,-240.77 l 76.27,-76.22 16.17,-16.29 c -0.02,0.05 -0.02,0.12 -0.04,0.17 l 89.99,-89.94 c 11.81,-11.8 25.84,-20.43 41.09,-26.23 l 0.97,-0.96 c 1.59,-0.59 3.31,-0.84 4.92,-1.37 1.44,-0.46 2.91,-0.81 4.37,-1.21 5.11,-1.45 10.3,-2.62 15.6,-3.38 0.1,-0.02 0.18,-0.05 0.28,-0.06 0.38,-0.05 0.78,-0.03 1.16,-0.08 4.66,-0.6 9.28,-1.34 14.06,-1.34 31.25,0 60.54,12.05 82.53,33.91 0.08,0.08 0.13,0.19 0.23,0.27 0.2,0.19 0.43,0.33 0.63,0.52 22.12,22.15 34.32,51.62 34.32,82.94 0,31.33 -12.2,60.78 -34.37,82.89 l -101.88,101.8 -80.08,80.67 c -20.07,20.06 -31.16,46.73 -31.25,75.13 -0.08,22.06 6.69,42.95 19.02,60.59 3.45,4.9 7.17,9.67 11.48,14 l 155.54,155.62 -0.04,0.05 160.46,160.56 c 19.91,19.91 46.49,30.87 74.82,30.87 28.43,-0.05 55.08,-11.07 75.09,-31.08 l 93.35,-93.28 c -5.8,14.85 -8.88,30.77 -8.83,47.19 0.13,34.27 13.62,66.43 37.93,90.53"
         style="fill:#ffffff;fill-opacity:1;fill-rule:nonzero;stroke:none"
         id="path28" /><path
         d="m 2490.53,2563.51 -183.74,185.13 c -22,21.7 -51.24,33.64 -82.33,33.64 -31.23,0 -60.54,-12.05 -82.54,-33.9 -22.28,-22.06 -34.58,-51.47 -34.72,-82.83 -0.13,-31.29 11.97,-60.78 34.03,-83.07 l 183.17,-184.53 c 20.08,-20.07 31.16,-46.74 31.25,-75.12 0.1,-28.36 -10.83,-54.96 -30.78,-74.93 L 2009.19,1932 c -19.88,-19.9 -46.47,-30.86 -74.85,-30.86 -28.38,0.02 -55.05,11.07 -75.06,31.08 l -92.39,92.31 c 5.4,-14.29 8.34,-29.54 8.34,-45.28 0,-34.24 -13.33,-66.44 -37.53,-90.67 -24.19,-24.2 -56.4,-37.53 -90.71,-37.53 -5.72,0 -11.47,0.38 -17.1,1.14 -10.81,1.44 -21.05,4.58 -30.9,8.55 l 94.5,-94.44 c 53.36,-53.32 120.8,-86.73 195.05,-96.64 15.11,-1.99 30.52,-3.01 45.78,-3.01 h 0.09 c 91.02,0 176.49,35.35 240.65,99.56 l 315.7,315.89 c 64.15,64.19 99.45,149.7 99.38,240.75 -0.04,91.05 -35.42,176.51 -99.61,240.66"
         style="fill:#ffffff;fill-opacity:1;fill-rule:nonzero;stroke:none"
         id="path30" /></g></g></svg>
